<!-- Generated by IcoMoon.io -->
<svg version="1.1" xmlns="http://www.w3.org/2000/svg" width="397" height="32" viewBox="0 0 397 32">
<title>yacht-adventures</title>
<path d="M9.024 29.44v-9.562l-9.024-17.318h5.568l5.952 12.403 5.914-12.403h5.491l-8.986 17.318v9.562h-4.915z"></path>
<path d="M22.385 29.44l9.83-26.88h5.53l9.83 26.88h-5.222l-2.15-6.221h-10.483l-2.189 6.221h-5.146zM31.063 19.379h7.795l-3.917-11.174-3.878 11.174z"></path>
<path d="M62.825 29.901c-2.714 0-5.043-0.576-6.989-1.728-1.946-1.178-3.443-2.803-4.493-4.877-1.050-2.099-1.574-4.518-1.574-7.258s0.525-5.158 1.574-7.258c1.050-2.099 2.547-3.738 4.493-4.915s4.275-1.766 6.989-1.766c3.226 0 5.862 0.806 7.91 2.419 2.074 1.587 3.366 3.827 3.878 6.72h-5.414c-0.333-1.459-1.050-2.598-2.15-3.418-1.075-0.845-2.509-1.267-4.301-1.267-2.483 0-4.429 0.845-5.837 2.534s-2.112 4.006-2.112 6.95c0 2.944 0.704 5.261 2.112 6.95 1.408 1.664 3.354 2.496 5.837 2.496 1.792 0 3.226-0.384 4.301-1.152 1.101-0.794 1.818-1.882 2.15-3.264h5.414c-0.512 2.765-1.805 4.928-3.878 6.49-2.048 1.562-4.685 2.342-7.91 2.342z"></path>
<path d="M80.117 29.44v-26.88h4.915v11.174h12.058v-11.174h4.915v26.88h-4.915v-11.712h-12.058v11.712h-4.915z"></path>
<path d="M114.641 29.44v-22.925h-7.834v-3.955h20.621v3.955h-7.872v22.925h-4.915z"></path>
<path d="M140.795 29.44l9.83-26.88h5.53l9.83 26.88h-5.222l-2.15-6.221h-10.483l-2.189 6.221h-5.146zM149.474 19.379h7.795l-3.917-11.174-3.878 11.174z"></path>
<path d="M170.6 29.44v-26.88h9.178c3.149 0 5.734 0.563 7.757 1.69 2.048 1.101 3.558 2.662 4.531 4.685 0.998 1.997 1.498 4.352 1.498 7.066s-0.499 5.082-1.498 7.104c-0.973 1.997-2.483 3.558-4.531 4.685-2.022 1.101-4.608 1.651-7.757 1.651h-9.178zM175.515 25.216h4.032c2.253 0 4.032-0.358 5.338-1.075 1.306-0.742 2.24-1.792 2.803-3.149 0.563-1.382 0.845-3.046 0.845-4.992 0-1.92-0.282-3.571-0.845-4.954s-1.498-2.445-2.803-3.187c-1.306-0.742-3.085-1.114-5.338-1.114h-4.032v18.47z"></path>
<path d="M205.947 29.44l-9.83-26.88h5.261l7.603 21.85 7.642-21.85h5.184l-9.831 26.88h-6.029z"></path>
<path d="M226.155 29.44v-26.88h17.549v3.955h-12.634v7.373h11.482v3.84h-11.482v7.757h12.634v3.955h-17.549z"></path>
<path d="M249.506 29.44v-26.88h4.915l12.634 18.931v-18.931h4.915v26.88h-4.915l-12.634-18.893v18.893h-4.915z"></path>
<path d="M284.593 29.44v-22.925h-7.834v-3.955h20.621v3.955h-7.872v22.925h-4.915z"></path>
<path d="M312.54 29.901c-1.971 0-3.75-0.384-5.338-1.152-1.587-0.794-2.854-1.984-3.802-3.571-0.922-1.587-1.382-3.597-1.382-6.029v-16.589h4.915v16.627c0 2.099 0.499 3.661 1.498 4.685 1.024 1.024 2.432 1.536 4.224 1.536 1.766 0 3.162-0.512 4.186-1.536s1.536-2.586 1.536-4.685v-16.627h4.915v16.589c0 2.432-0.486 4.442-1.459 6.029s-2.278 2.778-3.917 3.571c-1.613 0.768-3.405 1.152-5.376 1.152z"></path>
<path d="M329.461 29.44v-26.88h9.869c2.15 0 3.917 0.371 5.299 1.114 1.408 0.717 2.458 1.702 3.149 2.957 0.691 1.229 1.037 2.598 1.037 4.109 0 1.638-0.435 3.136-1.306 4.493-0.845 1.357-2.176 2.342-3.994 2.957l5.568 11.251h-5.645l-4.992-10.598h-4.070v10.598h-4.915zM334.377 15.232h4.646c1.638 0 2.842-0.397 3.61-1.19s1.152-1.843 1.152-3.149c0-1.28-0.384-2.304-1.152-3.072-0.742-0.768-1.958-1.152-3.648-1.152h-4.608v8.563z"></path>
<path d="M354.539 29.44v-26.88h17.549v3.955h-12.634v7.373h11.482v3.84h-11.482v7.757h12.634v3.955h-17.549z"></path>
<path d="M387.068 29.901c-1.971 0-3.712-0.333-5.222-0.998-1.51-0.691-2.701-1.664-3.571-2.918-0.87-1.28-1.318-2.829-1.344-4.646h5.184c0.051 1.254 0.499 2.317 1.344 3.187 0.87 0.845 2.061 1.267 3.571 1.267 1.306 0 2.342-0.307 3.11-0.922 0.768-0.64 1.152-1.485 1.152-2.534 0-1.101-0.346-1.958-1.037-2.573-0.666-0.614-1.562-1.114-2.688-1.498s-2.33-0.794-3.61-1.229c-2.074-0.717-3.661-1.638-4.762-2.765-1.075-1.126-1.613-2.624-1.613-4.493-0.026-1.587 0.346-2.944 1.114-4.070 0.794-1.152 1.869-2.035 3.226-2.65 1.357-0.64 2.918-0.96 4.685-0.96 1.792 0 3.366 0.32 4.723 0.96 1.382 0.64 2.458 1.536 3.226 2.688 0.794 1.152 1.216 2.522 1.267 4.109h-5.261c-0.026-0.947-0.397-1.779-1.114-2.496-0.691-0.742-1.664-1.114-2.918-1.114-1.075-0.026-1.984 0.243-2.726 0.806-0.717 0.538-1.075 1.331-1.075 2.381 0 0.896 0.282 1.613 0.845 2.15 0.563 0.512 1.331 0.947 2.304 1.306s2.086 0.742 3.341 1.152c1.331 0.461 2.547 0.998 3.648 1.613s1.984 1.434 2.65 2.458c0.666 0.998 0.998 2.291 0.998 3.878 0 1.408-0.358 2.714-1.075 3.917s-1.779 2.176-3.187 2.918c-1.408 0.717-3.136 1.075-5.184 1.075z"></path>
</svg>
