<svg xmlns="http://www.w3.org/2000/svg" aria-hidden="true" style="position:absolute;width:0;height:0;overflow:hidden">
  <defs>
  <!-- Line icon -->
    <symbol id="icon-line" viewBox="0 0 19456 32">
      <path stroke-width="16" d="M0 16h19456"/>
    </symbol>

  <!-- Yacht icon -->
  

    <!-- <symbol id="icon-fontisto-yacht" viewBox="0 0 32 32">
      <path d="M0 0h32v32H0V0z"/>
    </symbol>  -->

    <!-- Yacht-adventures icon -->
    <!-- <symbol id="icon-yacht-adventures" viewBox="0 0 397 32">
      <path d="M9.024 29.44v-9.562L0 2.56h5.568l5.952 12.403L17.434 2.56h5.491l-8.986 17.318v9.562H9.024zM22.385 29.44l9.83-26.88h5.53l9.83 26.88h-5.222l-2.15-6.221H29.72l-2.189 6.221h-5.146zm8.678-10.061h7.795L34.941 8.205l-3.878 11.174zM62.825 29.901c-2.714 0-5.043-.576-6.989-1.728-1.946-1.178-3.443-2.803-4.493-4.877-1.05-2.099-1.574-4.518-1.574-7.258s.525-5.158 1.574-7.258c1.05-2.099 2.547-3.738 4.493-4.915s4.275-1.766 6.989-1.766c3.226 0 5.862.806 7.91 2.419 2.074 1.587 3.366 3.827 3.878 6.72h-5.414c-.333-1.459-1.05-2.598-2.15-3.418-1.075-.845-2.509-1.267-4.301-1.267-2.483 0-4.429.845-5.837 2.534s-2.112 4.006-2.112 6.95.704 5.261 2.112 6.95c1.408 1.664 3.354 2.496 5.837 2.496 1.792 0 3.226-.384 4.301-1.152 1.101-.794 1.818-1.882 2.15-3.264h5.414c-.512 2.765-1.805 4.928-3.878 6.49-2.048 1.562-4.685 2.342-7.91 2.342zM80.117 29.44V2.56h4.915v11.174H97.09V2.56h4.915v26.88H97.09V17.728H85.032V29.44h-4.915zM114.641 29.44V6.515h-7.834V2.56h20.621v3.955h-7.872V29.44h-4.915zM140.795 29.44l9.83-26.88h5.53l9.83 26.88h-5.222l-2.15-6.221H148.13l-2.189 6.221h-5.146zm8.679-10.061h7.795l-3.917-11.174-3.878 11.174zM170.6 29.44V2.56h9.178c3.149 0 5.734.563 7.757 1.69 2.048 1.101 3.558 2.662 4.531 4.685.998 1.997 1.498 4.352 1.498 7.066s-.499 5.082-1.498 7.104c-.973 1.997-2.483 3.558-4.531 4.685-2.022 1.101-4.608 1.651-7.757 1.651H170.6zm4.915-4.224h4.032c2.253 0 4.032-.358 5.338-1.075 1.306-.742 2.24-1.792 2.803-3.149.563-1.382.845-3.046.845-4.992 0-1.92-.282-3.571-.845-4.954s-1.498-2.445-2.803-3.187c-1.306-.742-3.085-1.114-5.338-1.114h-4.032v18.47zM205.947 29.44l-9.83-26.88h5.261l7.603 21.85 7.642-21.85h5.184l-9.831 26.88h-6.029zM226.155 29.44V2.56h17.549v3.955H231.07v7.373h11.482v3.84H231.07v7.757h12.634v3.955h-17.549zM249.506 29.44V2.56h4.915l12.634 18.931V2.56h4.915v26.88h-4.915l-12.634-18.893V29.44h-4.915zM284.593 29.44V6.515h-7.834V2.56h20.621v3.955h-7.872V29.44h-4.915zM312.54 29.901c-1.971 0-3.75-.384-5.338-1.152-1.587-.794-2.854-1.984-3.802-3.571-.922-1.587-1.382-3.597-1.382-6.029V2.56h4.915v16.627c0 2.099.499 3.661 1.498 4.685 1.024 1.024 2.432 1.536 4.224 1.536 1.766 0 3.162-.512 4.186-1.536s1.536-2.586 1.536-4.685V2.56h4.915v16.589c0 2.432-.486 4.442-1.459 6.029s-2.278 2.778-3.917 3.571c-1.613.768-3.405 1.152-5.376 1.152zM329.461 29.44V2.56h9.869c2.15 0 3.917.371 5.299 1.114 1.408.717 2.458 1.702 3.149 2.957.691 1.229 1.037 2.598 1.037 4.109a8.148 8.148 0 0 1-1.306 4.493c-.845 1.357-2.176 2.342-3.994 2.957l5.568 11.251h-5.645l-4.992-10.598h-4.07v10.598h-4.915zm4.916-14.208h4.646c1.638 0 2.842-.397 3.61-1.19s1.152-1.843 1.152-3.149c0-1.28-.384-2.304-1.152-3.072-.742-.768-1.958-1.152-3.648-1.152h-4.608v8.563zM354.539 29.44V2.56h17.549v3.955h-12.634v7.373h11.482v3.84h-11.482v7.757h12.634v3.955h-17.549zM387.068 29.901c-1.971 0-3.712-.333-5.222-.998-1.51-.691-2.701-1.664-3.571-2.918-.87-1.28-1.318-2.829-1.344-4.646h5.184c.051 1.254.499 2.317 1.344 3.187.87.845 2.061 1.267 3.571 1.267 1.306 0 2.342-.307 3.11-.922.768-.64 1.152-1.485 1.152-2.534 0-1.101-.346-1.958-1.037-2.573-.666-.614-1.562-1.114-2.688-1.498l-3.61-1.229c-2.074-.717-3.661-1.638-4.762-2.765-1.075-1.126-1.613-2.624-1.613-4.493-.026-1.587.346-2.944 1.114-4.07.794-1.152 1.869-2.035 3.226-2.65 1.357-.64 2.918-.96 4.685-.96 1.792 0 3.366.32 4.723.96 1.382.64 2.458 1.536 3.226 2.688.794 1.152 1.216 2.522 1.267 4.109h-5.261c-.026-.947-.397-1.779-1.114-2.496-.691-.742-1.664-1.114-2.918-1.114-1.075-.026-1.984.243-2.726.806-.717.538-1.075 1.331-1.075 2.381 0 .896.282 1.613.845 2.15.563.512 1.331.947 2.304 1.306s2.086.742 3.341 1.152c1.331.461 2.547.998 3.648 1.613s1.984 1.434 2.65 2.458c.666.998.998 2.291.998 3.878 0 1.408-.358 2.714-1.075 3.917s-1.779 2.176-3.187 2.918c-1.408.717-3.136 1.075-5.184 1.075z"/>
    </symbol> -->

    <!-- Media icons -->
    <symbol id="icon-facebook" viewBox="0 0 18 32">
      <path d="M14.45 5.602h2.924V.655a40.727 40.727 0 0 0-4.262-.218c-4.231 0-7.124 2.582-7.124 7.311v4.076H1.212v5.538h4.776v14.187h5.724V17.362h4.76l.716-5.538h-5.476V8.293c0-1.633.436-2.691 2.738-2.691z"/>
    </symbol>
    <symbol id="icon-instagram" viewBox="0 0 32 32">
      <path d="M23.983 6.229a1.794 1.794 0 0 0-1.758 2.141 1.794 1.794 0 0 0 2.443 1.306 1.79 1.79 0 0 0 1.106-1.656 1.792 1.792 0 0 0-1.792-1.792zm6.869 3.614a11.33 11.33 0 0 0-.687-3.629 7.38 7.38 0 0 0-1.732-2.643 7.01 7.01 0 0 0-2.643-1.717 10.905 10.905 0 0 0-3.629-.702c-1.583-.09-2.091-.09-6.152-.09s-4.57 0-6.152.09a10.905 10.905 0 0 0-3.629.702 7.135 7.135 0 0 0-2.643 1.717 7.01 7.01 0 0 0-1.717 2.643 10.905 10.905 0 0 0-.702 3.629c-.09 1.583-.09 2.091-.09 6.153s0 4.57.09 6.152c.026 1.241.263 2.468.702 3.629.365 1 .952 1.904 1.717 2.643a7.135 7.135 0 0 0 2.643 1.717c1.161.439 2.388.676 3.629.702 1.583.09 2.091.09 6.152.09s4.57 0 6.152-.09a10.905 10.905 0 0 0 3.629-.702c1-.365 1.904-.952 2.643-1.717a7.243 7.243 0 0 0 1.732-2.643 11.33 11.33 0 0 0 .687-3.629c0-1.583.09-2.091.09-6.152s0-4.57-.09-6.153zm-2.688 12.126a8.39 8.39 0 0 1-.508 2.778 4.556 4.556 0 0 1-1.12 1.717 4.763 4.763 0 0 1-1.717 1.12 8.39 8.39 0 0 1-2.778.508c-1.493.075-2.046.09-5.973.09s-4.48 0-5.973-.09a8.566 8.566 0 0 1-2.897-.448 4.885 4.885 0 0 1-1.643-1.12 4.48 4.48 0 0 1-1.105-1.717 8.25 8.25 0 0 1-.597-2.837c0-1.493-.09-2.046-.09-5.973s0-4.48.09-5.973a8.281 8.281 0 0 1 .523-2.837 4.482 4.482 0 0 1 1.18-1.643 4.7 4.7 0 0 1 1.643-1.195 8.58 8.58 0 0 1 2.837-.508c1.493 0 2.046-.09 5.973-.09s4.48 0 5.973.09a8.39 8.39 0 0 1 2.778.508 4.56 4.56 0 0 1 1.777 1.195c.489.459.872 1.02 1.12 1.643a8.37 8.37 0 0 1 .508 2.837c.075 1.493.09 2.046.09 5.973s-.015 4.48-.09 5.973zM16.008 8.335a7.667 7.667 0 0 0-7.067 4.739 7.66 7.66 0 0 0 10.017 9.997 7.657 7.657 0 0 0 4.726-7.077 7.645 7.645 0 0 0-7.675-7.66zm0 12.634a4.979 4.979 0 0 1-4.595-3.07 4.975 4.975 0 0 1 3.624-6.78 4.974 4.974 0 0 1 5.564 6.781 4.965 4.965 0 0 1-2.691 2.691 4.97 4.97 0 0 1-1.903.379z"/>
    </symbol>
    <symbol id="icon-youtube" viewBox="0 0 46 32">
      <path d="M35.806.285c-2.137-.126-6.537-.251-13.2-.251h-.88C15.315.034 11.04.16 8.903.411 6.012.662 4 1.417 2.869 2.422c-1.006.88-1.76 2.514-2.011 4.651-.126 1.383-.251 4.274-.251 8.674v.629c0 4.149.126 7.04.377 8.423.377 2.011 1.006 3.52 2.263 4.4 1.257 1.006 3.394 1.634 6.411 1.886 2.137.126 6.537.251 13.2.251h.88c6.411 0 10.686-.126 12.823-.377 2.891-.251 4.903-1.006 6.034-2.011 1.006-.88 1.76-2.514 2.011-4.651.126-1.383.251-4.274.251-8.674v-.629c0-4.149-.126-7.04-.377-8.423-.377-2.011-1.006-3.52-2.263-4.4C40.96 1.165 38.823.537 35.806.285zm-4.903 15.463-13.828 8.297V7.451l13.828 8.297z"/>
    </symbol>
<!-- Yacht icon -->    
    <symbol id="icon-yacht" viewBox="0 0 32 32">
      <path d="M0 25.621l7.219 6.379h21.176l3.032-4.26-31.424-2.119zM18.647 0v25.431l9.745 0.671zM17.319 4.285l-14.080 20.036 14.080 0.951z">
      </path>
  </symbol>
  </defs>
</svg>